HIERARCHY
ROOT SpineBase
{
  OFFSET 0.000000 0.000000 0.000000
  CHANNELS 6 Xposition Yposition Zposition Zrotation Xrotation Yrotation
  JOINT SpineMid
  {
    OFFSET 0.000000 31.032035 0.000000
    CHANNELS 3 Zrotation Xrotation Yrotation
    JOINT SpineShoulder
    {
      OFFSET 0.471070 23.052551 -0.628314
      CHANNELS 3 Zrotation Xrotation Yrotation
      JOINT Neck
      {
        OFFSET 0.284275 7.623442 -0.506266
        CHANNELS 3 Zrotation Xrotation Yrotation
        JOINT Head
        {
          OFFSET 5.603602 12.750565 3.601315
          CHANNELS 3 Zrotation Xrotation Yrotation
          End Site
          {
            OFFSET 0 0 0
          }
        }
      }
      JOINT ShoulderLeft
      {
        OFFSET -10.207742 -2.889786 -13.546641
        CHANNELS 3 Zrotation Xrotation Yrotation
        JOINT ElbowLeft
        {
          OFFSET -8.395632 -27.009398 -3.535161
          CHANNELS 3 Zrotation Xrotation Yrotation
          JOINT WristLeft
          {
            OFFSET 0.016636 -21.351055 -2.644619
            CHANNELS 3 Zrotation Xrotation Yrotation
            JOINT HandLeft
            {
              OFFSET 0.312734 -6.284687 -0.351823
              CHANNELS 3 Zrotation Xrotation Yrotation
              JOINT HandTipLeft
              {
                OFFSET 0.278915 -8.233341 0.235059
                CHANNELS 3 Zrotation Xrotation Yrotation
                End Site
                {
                  OFFSET 0 0 0
                }
              }
              JOINT ThumbLeft
              {
                OFFSET -3.863392 3.144395 -3.002321
                CHANNELS 3 Zrotation Xrotation Yrotation
                End Site
                {
                  OFFSET 0 0 0
                }
              }
            }
          }
        }
      }
      JOINT ShoulderRight
      {
        OFFSET 10.447100 -3.487126 13.131915
        CHANNELS 3 Zrotation Xrotation Yrotation
        JOINT ElbowRight
        {
          OFFSET 2.374952 -27.779267 5.094487
          CHANNELS 3 Zrotation Xrotation Yrotation
          JOINT WristRight
          {
            OFFSET 12.630287 -14.575220 -9.878933
            CHANNELS 3 Zrotation Xrotation Yrotation
            JOINT HandRight
            {
              OFFSET 4.755186 1.578276 -1.020997
              CHANNELS 3 Zrotation Xrotation Yrotation
              JOINT HandTipRight
              {
                OFFSET 6.251114 -0.216269 -4.504537
                CHANNELS 3 Zrotation Xrotation Yrotation
                End Site
                {
                  OFFSET 0 0 0
                }
              }
              JOINT ThumbRight
              {
                OFFSET 4.271211 2.102755 -0.934195
                CHANNELS 3 Zrotation Xrotation Yrotation
                End Site
                {
                  OFFSET 0 0 0
                }
              }
            }
          }
        }
      }
    }
  }
  JOINT HipLeft
  {
    OFFSET -2.814908 1.409424 -8.997505
    CHANNELS 3 Zrotation Xrotation Yrotation
    JOINT KneeLeft
    {
      OFFSET 0.285585 -39.704072 -11.035901
      CHANNELS 3 Zrotation Xrotation Yrotation
      JOINT AnkleLeft
      {
        OFFSET -11.634619 -36.505939 5.982623
        CHANNELS 3 Zrotation Xrotation Yrotation
        JOINT FootLeft
        {
          OFFSET -0.646165 -9.474066 -4.338747
          CHANNELS 3 Zrotation Xrotation Yrotation
          End Site
          {
            OFFSET 0 0 0
          }
        }
      }
    }
  }
  JOINT HipRight
  {
    OFFSET 4.789113 0.173063 1.948157
    CHANNELS 3 Zrotation Xrotation Yrotation
    JOINT KneeRight
    {
      OFFSET 2.667078 -35.726838 0.451543
      CHANNELS 3 Zrotation Xrotation Yrotation
      JOINT AnkleRight
      {
        OFFSET -10.225074 -39.681307 6.730166
        CHANNELS 3 Zrotation Xrotation Yrotation
        JOINT FootRight
        {
          OFFSET 3.917861 -7.934075 -3.611096
          CHANNELS 3 Zrotation Xrotation Yrotation
          End Site
          {
            OFFSET 0 0 0
          }
        }
      }
    }
  }
}
MOTION
Frames: 9
Frame Time: 0.033333
-90.545703 81.745713 331.663782 3.661369 -5.781762 -43.859658 0.754235 0.018297 44.276167 0.121086 -0.198788 0.286410 5.235769 -7.526827 3.523299 0.000000 0.000000 0.000000 2.366958 13.830358 -4.640129 0.564359 1.941317 2.235506 7.887034 -6.549039 1.663258 -2.299194 0.553275 1.053969 0.000000 0.000000 0.000000 0.000000 0.000000 0.000000 3.893005 -29.075427 -0.171377 -15.210697 -9.710946 -42.813113 -59.250822 21.299786 29.197961 19.356598 -8.734926 -23.144843 0.000000 0.000000 0.000000 0.000000 0.000000 0.000000 -2.580947 -16.784065 47.476379 17.416605 11.335380 -3.552272 13.126370 13.223988 -14.039297 0.000000 0.000000 0.000000 3.830851 10.928982 43.128261 13.186949 -3.891939 6.935828 3.397818 35.997774 -11.177102 0.000000 0.000000 0.000000
-88.961028 81.924253 332.229302 3.190724 -5.665955 -43.405368 0.639449 0.052686 43.773926 0.306319 -0.309989 0.272226 6.290099 -8.296854 3.726316 0.000000 0.000000 0.000000 2.084749 14.072966 -4.555642 1.292589 2.768875 2.241306 7.845040 -8.181060 1.945152 -3.870306 0.635070 1.006395 0.000000 0.000000 0.000000 0.000000 0.000000 0.000000 12.337222 -33.470098 3.128890 -8.751973 -0.741080 -44.387877 -55.725751 18.400355 22.362818 13.134553 -10.869558 -23.172808 0.000000 0.000000 0.000000 0.000000 0.000000 0.000000 -3.527818 -15.807222 46.891987 16.230974 9.617959 -3.165994 13.856809 13.589455 -13.710137 0.000000 0.000000 0.000000 2.441488 10.270275 42.909053 14.685494 -4.708164 7.123940 1.617135 35.679373 -9.851432 0.000000 0.000000 0.000000
-87.451869 82.152059 332.849177 2.642371 -5.453059 -43.294266 0.484804 0.050413 43.608236 0.502732 -0.451543 0.253453 7.367369 -9.255149 4.061246 0.000000 0.000000 0.000000 2.080645 14.506215 -4.602724 1.665163 2.989912 2.399761 7.165759 -8.415279 1.967946 -4.672621 -0.254513 0.924531 0.000000 0.000000 0.000000 0.000000 0.000000 0.000000 23.225849 -35.367207 7.796942 -3.284754 6.326652 -47.999203 -55.429032 9.968697 16.880929 10.012740 -10.711199 -22.827580 0.000000 0.000000 0.000000 0.000000 0.000000 0.000000 -4.147091 -14.661284 46.633042 14.760107 7.794998 -2.742751 14.547686 13.617071 -13.263679 0.000000 0.000000 0.000000 1.407874 9.954346 42.974817 15.794750 -5.457434 7.283333 2.050161 35.679684 -9.841603 0.000000 0.000000 0.000000
-85.981217 82.422905 333.519504 2.029682 -5.318823 -43.594564 0.397993 0.030725 43.856318 0.645035 -0.579282 0.232723 7.652728 -9.767586 4.421790 0.000000 0.000000 0.000000 2.218175 15.549936 -4.846505 2.081656 2.414900 2.769051 6.111540 -7.369815 1.822495 -5.035831 -2.764678 0.814684 0.000000 0.000000 0.000000 0.000000 0.000000 0.000000 34.708303 -32.984872 12.084625 -1.147729 8.171992 -51.626185 -58.299039 -0.111080 15.208042 11.345581 -7.124174 -25.708338 0.000000 0.000000 0.000000 0.000000 0.000000 0.000000 -4.746082 -13.380035 46.824100 13.515080 6.129738 -2.494309 14.461754 13.658466 -12.367517 0.000000 0.000000 0.000000 1.011889 10.175000 43.346748 15.403569 -5.881448 7.108887 -1.016648 31.627518 -8.102147 0.000000 0.000000 0.000000
-84.690784 82.715020 334.223518 1.414189 -5.199290 -44.032232 0.353902 0.019709 44.243796 0.725224 -0.667941 0.209308 8.027539 -10.237484 4.740085 0.000000 0.000000 0.000000 2.658760 15.864270 -4.920072 2.296171 2.876904 2.849571 4.701964 -7.996843 1.786575 -3.839453 -2.626313 0.764646 0.000000 0.000000 0.000000 0.000000 0.000000 0.000000 44.503108 -29.947511 15.158806 -2.615823 10.730916 -51.567316 -56.715280 -3.775081 12.825160 11.706103 -4.848856 -27.042300 0.000000 0.000000 0.000000 0.000000 0.000000 0.000000 -5.241450 -12.226422 47.199935 12.615927 4.675619 -2.364141 13.675194 12.858176 -11.104176 0.000000 0.000000 0.000000 1.041445 10.659214 43.795997 14.009438 -6.071572 6.685984 -8.319807 20.563405 -6.035089 0.000000 0.000000 0.000000
-83.566145 82.916173 334.958956 0.938417 -5.216457 -44.469431 0.339688 0.037837 44.645263 0.744563 -0.695600 0.189957 7.495424 -10.358471 5.074033 0.000000 0.000000 0.000000 3.039833 16.003513 -4.933887 2.649746 3.589673 2.821185 3.857531 -8.254643 1.804968 -2.609172 -2.734530 0.802564 0.000000 0.000000 0.000000 0.000000 0.000000 0.000000 52.253793 -26.745396 17.015281 -6.287048 12.261381 -50.375026 -52.883055 -4.792998 13.758152 7.998672 -5.215205 -30.356966 0.000000 0.000000 0.000000 0.000000 0.000000 0.000000 -5.931390 -11.339065 47.659674 12.288360 3.385477 -2.347593 8.322401 9.194827 -7.084643 0.000000 0.000000 0.000000 1.221701 11.321310 44.206343 12.326794 -6.193343 6.259811 -11.626314 13.937366 -5.577905 0.000000 0.000000 0.000000
-82.701859 83.025085 335.649223 0.663284 -5.350119 -44.701069 0.354970 0.053758 44.859110 0.691249 -0.677096 0.177659 6.840583 -10.180100 5.258757 0.000000 0.000000 0.000000 3.300575 15.878918 -4.843323 3.441246 4.513009 2.621080 3.144156 -8.668246 1.889901 -0.936809 -2.735286 0.965020 0.000000 0.000000 0.000000 0.000000 0.000000 0.000000 55.882761 -24.215351 17.247353 -8.096785 13.195269 -49.106114 -53.172172 -6.293142 10.080208 8.796194 -4.882177 -28.446027 0.000000 0.000000 0.000000 0.000000 0.000000 0.000000 -6.597307 -10.680714 47.935113 12.072885 2.610435 -2.408592 7.637076 9.162586 -6.342707 0.000000 0.000000 0.000000 1.500445 11.973928 44.377043 10.613154 -6.068269 5.806071 -12.235132 11.365558 -5.264597 0.000000 0.000000 0.000000
-81.856198 83.083020 336.222522 0.590481 -5.571070 -44.542327 0.404771 0.073273 44.699307 0.569047 -0.606711 0.173021 5.648614 -9.956866 5.535986 0.000000 0.000000 0.000000 3.478580 15.648382 -4.730352 4.335014 5.619126 2.323303 3.062365 -9.011517 2.086664 0.767180 -2.927774 1.239462 0.000000 0.000000 0.000000 0.000000 0.000000 0.000000 57.701559 -22.208507 16.922746 -10.999133 12.273556 -47.715067 -49.451158 -3.643046 9.797701 5.579897 -6.347526 -26.797083 0.000000 0.000000 0.000000 0.000000 0.000000 0.000000 -7.520650 -10.047737 47.832996 11.911704 1.857384 -2.472087 10.723847 12.889693 -8.255558 0.000000 0.000000 0.000000 1.444220 12.301698 44.201761 9.454156 -5.918874 5.428344 -8.179498 16.923340 -4.248565 0.000000 0.000000 0.000000
-81.248693 83.056263 336.648217 0.747993 -5.899214 -44.385068 0.491974 0.101782 44.561074 0.383346 -0.498700 0.179195 3.924903 -9.416881 5.767002 0.000000 0.000000 0.000000 3.323903 15.166609 -4.464468 5.358925 6.729394 1.867924 3.245332 -10.172139 2.357723 3.204194 -1.088388 1.396818 0.000000 0.000000 0.000000 0.000000 0.000000 0.000000 54.717833 -21.273741 15.305662 -10.130251 9.392123 -47.644820 -50.829509 -4.528846 13.748464 5.900913 -5.961779 -32.182795 0.000000 0.000000 0.000000 0.000000 0.000000 0.000000 -8.506042 -9.753822 47.773507 12.146622 1.481072 -2.595019 16.854913 18.326929 -12.629780 0.000000 0.000000 0.000000 1.020001 12.495449 44.075828 8.811819 -5.884010 5.200115 -4.489054 22.337176 -3.705718 0.000000 0.000000 0.000000
